<svg width="195" height="209" viewBox="0 0 195 209" fill="none" xmlns="http://www.w3.org/2000/svg">
<path fill-rule="evenodd" clip-rule="evenodd" d="M37.6356 147.907V157.124H115.289C130.244 157.124 143.686 154.341 155.309 148.41L155.348 148.39L155.386 148.37C167.28 142.158 176.499 133.029 182.891 121.174C189.546 109.199 192.607 94.8443 192.607 78.562C192.607 62.2796 189.546 47.9247 182.891 35.9497C176.501 24.0981 167.272 15.062 155.349 9.06887C143.716 2.89958 130.257 0 115.289 0H37.6356V101.677H46.8629V147.907L37.6356 147.907ZM183.38 78.562C183.38 93.7486 180.518 106.479 174.794 116.752C169.268 127.025 161.374 134.842 151.111 140.202C141.045 145.338 129.105 147.907 115.289 147.907L46.8629 147.907L46.8633 9.21736H115.289C129.105 9.21736 141.045 11.8973 151.111 17.2573C161.374 22.394 169.268 30.0989 174.794 40.3722C180.518 50.6455 183.38 63.3754 183.38 78.562Z" fill="white"/>
<path fill-rule="evenodd" clip-rule="evenodd" d="M37.6795 205.645V148.036H46.9072V205.645H37.6795Z" fill="white"/>
<path fill-rule="evenodd" clip-rule="evenodd" d="M96.1213 205.645H37.6795V196.427H96.1213V205.645Z" fill="white"/>
<path fill-rule="evenodd" clip-rule="evenodd" d="M148.994 202.482L188.475 163.045L195 169.563L155.519 209L148.994 202.482Z" fill="white"/>
<path fill-rule="evenodd" clip-rule="evenodd" d="M183.38 171.007L168.126 154.874L174.835 148.545L190.089 164.679L183.38 171.007Z" fill="white"/>
<path fill-rule="evenodd" clip-rule="evenodd" d="M155.156 208.747L101.317 154.969L107.842 148.451L161.681 202.229L155.156 208.747Z" fill="white"/>
<path fill-rule="evenodd" clip-rule="evenodd" d="M96.1213 51.2538L96.1213 204.876H86.8936L86.8936 51.2538H96.1213Z" fill="white"/>
<path fill-rule="evenodd" clip-rule="evenodd" d="M94.5833 60.4711L0 60.4711L8.06706e-07 51.2538L94.5833 51.2538V60.4711Z" fill="white"/>
</svg>
